<svg width="32" height="32" viewBox="0 0 32 32" fill="none" xmlns="http://www.w3.org/2000/svg">
<path fill-rule="evenodd" clip-rule="evenodd" d="M16 2.03883C8.28946 2.03883 2.03884 8.28946 2.03884 16C2.03884 23.7105 8.28946 29.9612 16 29.9612C23.7105 29.9612 29.9612 23.7105 29.9612 16C29.9612 8.28946 23.7105 2.03883 16 2.03883ZM1.96117 16C1.96117 8.24656 8.24657 1.96116 16 1.96116C23.7534 1.96116 30.0388 8.24656 30.0388 16C30.0388 23.7534 23.7534 30.0388 16 30.0388C8.24657 30.0388 1.96117 23.7534 1.96117 16Z" fill="#D0D5DD"/>
<path fill-rule="evenodd" clip-rule="evenodd" d="M16 12.0779C13.8338 12.0779 12.0777 13.834 12.0777 16.0002C12.0777 18.1665 13.8338 19.9226 16 19.9226C18.1663 19.9226 19.9223 18.1665 19.9223 16.0002C19.9223 13.834 18.1663 12.0779 16 12.0779ZM12 16.0002C12 13.7911 13.7909 12.0002 16 12.0002C18.2092 12.0002 20 13.7911 20 16.0002C20 18.2094 18.2092 20.0002 16 20.0002C13.7909 20.0002 12 18.2094 12 16.0002Z" fill="#D0D5DD"/>
<path fill-rule="evenodd" clip-rule="evenodd" d="M16 13.3201C14.5201 13.3201 13.3204 14.5198 13.3204 15.9997C13.3204 17.4796 14.5201 18.6793 16 18.6793C17.4799 18.6793 18.6796 17.4796 18.6796 15.9997C18.6796 14.5198 17.4799 13.3201 16 13.3201ZM13.2427 15.9997C13.2427 14.4769 14.4772 13.2424 16 13.2424C17.5228 13.2424 18.7573 14.4769 18.7573 15.9997C18.7573 17.5225 17.5228 18.757 16 18.757C14.4772 18.757 13.2427 17.5225 13.2427 15.9997Z" fill="#D0D5DD"/>
<path d="M15.9612 0H16.0388V32H15.9612V0Z" fill="#D0D5DD"/>
<path d="M32 15.9609L32 16.0386L-3.39506e-09 16.0386L0 15.9609L32 15.9609Z" fill="#D0D5DD"/>
<path d="M26.602 0H26.6796V32H26.602V0Z" fill="#D0D5DD"/>
<path d="M10.6408 0H10.7184V32H10.6408V0Z" fill="#D0D5DD"/>
<path d="M21.2816 0H21.3592V32H21.2816V0Z" fill="#D0D5DD"/>
<path d="M5.32037 0H5.39804V32H5.32037V0Z" fill="#D0D5DD"/>
<path d="M32 26.6016L32 26.6792L-3.39506e-09 26.6792L0 26.6016L32 26.6016Z" fill="#D0D5DD"/>
<path d="M32 10.6406L32 10.7183L-3.39506e-09 10.7183L0 10.6406L32 10.6406Z" fill="#D0D5DD"/>
<path d="M32 21.2812L32 21.3589L-3.39506e-09 21.3589L0 21.2812L32 21.2812Z" fill="#D0D5DD"/>
<path d="M32 5.32031L32 5.39798L-3.39506e-09 5.39798L0 5.32031L32 5.32031Z" fill="#D0D5DD"/>
</svg>
