<svg width="100" height="32" viewBox="0 0 100 32" fill="none" xmlns="http://www.w3.org/2000/svg">
<path d="M9.35369 8.45348V17.8427C9.35369 19.8171 7.99006 21.2376 5.77415 21.2376C3.56534 21.2376 2.1946 19.8171 2.1946 17.8427V8.45348H0V18.0202C0 21.0742 2.28693 23.2404 5.77415 23.2404C9.26136 23.2404 11.5554 21.0742 11.5554 18.0202V8.45348H9.35369Z" fill="white"/>
<path d="M16.6992 16.5217C16.6992 14.7816 17.7646 13.7873 19.2418 13.7873C20.6836 13.7873 21.5572 14.7319 21.5572 16.3157V22.9989H23.6808V16.06C23.6808 13.3611 22.1964 11.9478 19.9663 11.9478C18.3256 11.9478 17.2532 12.7077 16.7489 13.8654H16.614V12.0898H14.5756V22.9989H16.6992V16.5217Z" fill="white"/>
<path d="M31.6211 12.0898H29.3839V9.47621H27.2603V12.0898H25.6623V13.7944H27.2603V20.2362C27.2532 22.2177 28.766 23.1765 30.4421 23.141C31.1168 23.1339 31.5714 23.006 31.82 22.9137L31.4364 21.1594C31.2944 21.1879 31.0316 21.2518 30.6907 21.2518C30.0018 21.2518 29.3839 21.0245 29.3839 19.7958V13.7944H31.6211V12.0898Z" fill="white"/>
<path d="M33.9702 22.9989H36.0938V12.0898H33.9702V22.9989ZM35.0426 10.4066C35.7741 10.4066 36.3849 9.83842 36.3849 9.1424C36.3849 8.44638 35.7741 7.87109 35.0426 7.87109C34.304 7.87109 33.7003 8.44638 33.7003 9.1424C33.7003 9.83842 34.304 10.4066 35.0426 10.4066Z" fill="white"/>
<path d="M44.043 12.0898H41.8058V9.47621H39.6822V12.0898H38.0842V13.7944H39.6822V20.2362C39.6751 22.2177 41.1879 23.1765 42.864 23.141C43.5387 23.1339 43.9933 23.006 44.2418 22.9137L43.8583 21.1594C43.7163 21.1879 43.4535 21.2518 43.1126 21.2518C42.4237 21.2518 41.8058 21.0245 41.8058 19.7958V13.7944H44.043V12.0898Z" fill="white"/>
<path d="M48.75 8.45348H46.6264V22.9989H48.75V8.45348Z" fill="white"/>
<path d="M56.3086 23.2191C58.6879 23.2191 60.3711 22.0472 60.854 20.2717L58.8441 19.9094C58.4606 20.9393 57.5373 21.4648 56.3299 21.4648C54.5117 21.4648 53.2901 20.2859 53.2333 18.1836H60.989V17.4308C60.989 13.489 58.631 11.9478 56.1594 11.9478C53.1197 11.9478 51.1168 14.2631 51.1168 17.6154C51.1168 21.0032 53.0913 23.2191 56.3086 23.2191ZM53.2404 16.5927C53.3256 15.0444 54.4478 13.7021 56.1737 13.7021C57.8214 13.7021 58.9009 14.9237 58.908 16.5927H53.2404Z" fill="white"/>
<path d="M67.429 23.212C69.4176 23.212 70.1989 21.9975 70.5824 21.3015H70.7599V22.9989H72.8338V8.45348H70.7102V13.8583H70.5824C70.1989 13.1836 69.4744 11.9478 67.4432 11.9478C64.8082 11.9478 62.8693 14.0288 62.8693 17.5657C62.8693 21.0955 64.7798 23.212 67.429 23.212ZM67.8977 21.4009C66.0014 21.4009 65.0142 19.7319 65.0142 17.5444C65.0142 15.3782 65.9801 13.7518 67.8977 13.7518C69.7514 13.7518 70.7457 15.2646 70.7457 17.5444C70.7457 19.8384 69.7301 21.4009 67.8977 21.4009Z" fill="white"/>
<path d="M90.6818 8.45348V17.8427C90.6818 19.8171 89.3182 21.2376 87.1023 21.2376C84.8935 21.2376 83.5227 19.8171 83.5227 17.8427V8.45348H81.3281V18.0202C81.3281 21.0742 83.6151 23.2404 87.1023 23.2404C90.5895 23.2404 92.8835 21.0742 92.8835 18.0202V8.45348H90.6818Z" fill="white"/>
<path d="M98.2688 8.45348H96.0742V22.9989H98.2688V8.45348Z" fill="white"/>
</svg>
