<?xml version="1.0" encoding="UTF-8" ?>
<!DOCTYPE svg PUBLIC "-//W3C//DTD SVG 1.1//EN" "http://www.w3.org/Graphics/SVG/1.1/DTD/svg11.dtd">
<svg width="278pt" height="275pt" viewBox="0 0 278 275" version="1.1" xmlns="http://www.w3.org/2000/svg">
<path fill="#fdaf17" stroke="#fdaf17" stroke-width="0.09375" opacity="1.00" d=" M 0.0 0.0 L 278.0 0.0 L 278.0 275.0 L 0.0 275.0 L 0.0 0.0 Z" />
<path fill="#fff56d" stroke="#fff56d" stroke-width="0.09375" opacity="1.00" d=" M 29.8 93.6 C 34.8 92.2 40.1 92.0 45.1 93.7 C 42.5 93.8 39.0 92.8 37.4 95.5 C 34.6 99.5 33.1 104.4 32.0 109.1 C 30.5 115.0 34.8 120.2 34.6 126.0 C 34.3 126.2 33.7 126.6 33.4 126.8 C 34.7 127.4 36.0 128.1 37.3 128.8 C 36.6 132.8 36.3 136.7 36.1 140.7 C 35.3 136.8 33.6 133.1 31.0 130.0 C 27.5 125.6 26.3 119.9 25.5 114.4 C 24.7 107.2 27.4 100.3 29.8 93.6 Z" />
<path fill="#fef334" stroke="#fef334" stroke-width="0.09375" opacity="1.00" d=" M 21.5 97.9 C 24.0 95.9 26.8 94.5 29.8 93.6 C 27.4 100.3 24.7 107.2 25.5 114.4 C 26.3 119.9 27.5 125.6 31.0 130.0 C 33.6 133.1 35.3 136.8 36.1 140.7 C 36.1 141.3 36.0 142.4 36.0 142.9 C 25.7 136.3 20.1 124.0 20.3 112.0 C 20.2 107.3 21.4 102.8 21.5 98.2 L 21.5 97.9 Z" />
<path fill="#fef798" stroke="#fef798" stroke-width="0.09375" opacity="1.00" d=" M 37.4 95.5 C 39.0 92.8 42.5 93.8 45.1 93.7 L 46.5 93.7 L 46.0 94.3 C 43.1 98.0 38.7 100.7 37.3 105.4 C 34.7 112.0 36.9 119.5 41.4 124.6 C 44.4 127.7 50.6 127.1 51.4 132.3 C 52.0 132.2 53.0 132.2 53.6 132.2 C 53.6 134.3 53.7 136.5 53.8 138.7 C 53.4 141.3 51.4 142.8 49.1 143.7 C 50.2 140.6 51.3 137.4 52.4 134.3 C 52.0 133.6 51.5 133.0 51.1 132.3 C 50.9 133.3 50.4 135.1 50.2 136.1 C 48.8 135.4 47.4 134.6 46.0 134.1 C 45.1 135.0 44.4 136.1 43.6 137.1 C 42.4 133.5 41.1 129.9 39.9 126.3 C 38.2 126.2 36.4 126.1 34.6 126.0 C 34.8 120.2 30.5 115.0 32.0 109.1 C 33.1 104.4 34.6 99.5 37.4 95.5 Z" />
<path fill="#fefabb" stroke="#fefabb" stroke-width="0.09375" opacity="1.00" d=" M 37.3 105.4 C 38.7 100.7 43.1 98.0 46.0 94.3 C 48.9 95.1 51.6 96.8 54.0 98.7 C 51.0 99.3 47.7 99.4 45.2 101.2 C 40.1 105.9 38.6 115.0 43.6 120.3 C 46.2 123.6 50.7 125.2 54.8 123.9 C 59.4 121.0 61.9 115.8 62.8 110.6 C 64.5 114.0 65.4 117.7 65.8 121.5 C 63.8 124.0 61.8 126.8 58.5 127.5 C 58.6 127.1 59.0 126.3 59.2 125.9 C 57.4 126.0 55.5 125.9 53.7 126.4 C 52.8 128.3 52.1 130.3 51.4 132.3 C 50.6 127.1 44.4 127.7 41.4 124.6 C 36.9 119.5 34.7 112.0 37.3 105.4 Z" />
<path fill="#fee402" stroke="#fee402" stroke-width="0.09375" opacity="1.00" d=" M 12.8 115.0 C 11.8 108.3 15.6 101.3 21.5 98.2 C 21.4 102.8 20.2 107.3 20.3 112.0 C 20.1 124.0 25.7 136.3 36.0 142.9 C 35.7 145.9 35.8 149.5 32.7 151.1 C 29.8 148.7 26.7 146.6 24.2 143.8 C 21.6 141.1 20.3 137.6 18.4 134.4 C 14.8 128.6 13.6 121.7 12.8 115.0 Z" />
<path fill="#fffcda" stroke="#fffcda" stroke-width="0.09375" opacity="1.00" d=" M 45.2 101.2 C 47.7 99.4 51.0 99.3 54.0 98.7 C 57.6 102.1 60.9 105.9 62.8 110.6 C 61.9 115.8 59.4 121.0 54.8 123.9 C 50.7 125.2 46.2 123.6 43.6 120.3 C 38.6 115.0 40.1 105.9 45.2 101.2 Z" />
<path fill="#fefff9" stroke="#fefff9" stroke-width="0.09375" opacity="1.00" d=" M 50.4 102.5 C 52.4 102.1 54.2 103.4 55.9 104.4 C 59.6 108.3 58.9 114.6 55.7 118.6 C 53.4 120.3 50.1 120.0 47.5 119.5 C 41.3 115.6 43.0 103.9 50.4 102.5 Z" />
<path fill="#fef894" stroke="#fef894" stroke-width="0.09375" opacity="1.00" d=" M 65.8 121.5 C 66.1 122.6 66.2 123.6 66.3 124.7 C 65.0 128.0 62.4 130.6 59.6 132.7 C 57.2 134.1 57.6 137.1 57.4 139.5 L 57.4 140.6 C 57.0 136.4 56.1 132.2 56.9 128.1 C 57.3 127.9 58.1 127.6 58.5 127.5 C 61.8 126.8 63.8 124.0 65.8 121.5 Z" />
<path fill="#fef571" stroke="#fef571" stroke-width="0.09375" opacity="1.00" d=" M 59.6 132.7 C 62.4 130.6 65.0 128.0 66.3 124.7 C 66.3 127.1 66.6 129.6 65.8 131.9 C 65.3 133.3 64.6 134.7 63.2 135.3 C 60.7 136.6 59.2 138.9 57.6 141.1 L 57.4 139.5 C 57.6 137.1 57.2 134.1 59.6 132.7 Z" />
<path fill="#16120e" stroke="#16120e" stroke-width="0.09375" opacity="1.00" d=" M 33.4 126.8 C 33.7 126.6 34.3 126.2 34.6 126.0 C 36.4 126.1 38.2 126.2 39.9 126.3 C 41.1 129.9 42.4 133.5 43.6 137.1 C 44.6 140.1 45.7 143.0 46.8 146.0 C 47.8 142.7 49.0 139.4 50.2 136.1 C 50.4 135.1 50.9 133.3 51.1 132.3 C 51.5 133.0 52.0 133.6 52.4 134.3 C 51.3 137.4 50.2 140.6 49.1 143.7 C 48.5 145.3 47.9 147.0 47.3 148.6 C 47.0 149.6 46.6 150.6 46.3 151.6 C 46.0 151.5 45.4 151.5 45.1 151.4 C 44.5 149.6 43.9 147.7 43.2 145.9 C 42.4 143.4 41.6 141.0 40.7 138.6 C 39.9 136.4 39.3 134.1 38.6 131.9 C 38.1 134.5 37.8 137.1 37.6 139.7 C 37.5 141.2 37.4 142.6 37.3 144.0 C 37.3 146.0 37.4 148.0 37.6 150.0 C 38.8 150.4 40.0 150.9 41.2 151.2 C 39.4 151.5 37.7 151.7 35.9 151.8 C 34.6 151.8 33.3 151.7 31.9 151.7 C 32.1 151.5 32.5 151.2 32.7 151.1 C 35.8 149.5 35.7 145.9 36.0 142.9 C 36.0 142.4 36.1 141.3 36.1 140.7 C 36.3 136.7 36.6 132.8 37.3 128.8 C 36.0 128.1 34.7 127.4 33.4 126.8 Z" />
<path fill="#13131d" stroke="#13131d" stroke-width="0.09375" opacity="1.00" d=" M 53.7 126.4 C 55.5 125.9 57.4 126.0 59.2 125.9 C 59.0 126.3 58.6 127.1 58.5 127.5 C 58.1 127.6 57.3 127.9 56.9 128.1 C 56.1 132.2 57.0 136.4 57.4 140.6 C 57.8 143.7 56.5 147.7 59.1 150.1 C 59.6 150.5 60.6 151.3 61.1 151.7 C 59.5 151.7 58.0 151.8 56.4 151.7 C 54.7 151.7 53.0 151.7 51.3 151.6 L 52.4 150.8 C 52.9 150.4 53.9 149.6 54.4 149.2 C 54.4 145.7 54.1 142.2 53.8 138.7 C 53.7 136.5 53.6 134.3 53.6 132.2 C 53.0 132.2 52.0 132.2 51.4 132.3 C 52.1 130.3 52.8 128.3 53.7 126.4 Z" />
<path fill="#1b1617" stroke="#1b1617" stroke-width="0.09375" opacity="1.00" d=" M 179.2 126.2 C 184.2 123.9 190.2 126.8 192.6 131.4 C 196.8 138.5 194.1 149.4 185.9 152.1 C 179.8 154.1 173.8 149.2 172.3 143.4 C 170.2 137.1 173.0 129.1 179.2 126.2 Z" />
<path fill="#fed903" stroke="#fed903" stroke-width="0.09375" opacity="1.00" d=" M 8.4 126.9 C 10.7 130.2 11.3 134.3 13.3 137.8 C 17.7 146.2 24.5 153.4 32.6 158.4 L 32.1 159.3 C 31.1 160.4 29.2 159.4 27.9 159.2 C 15.2 154.4 7.0 140.2 8.4 126.9 Z" />
<path fill="#feb017" stroke="#feb017" stroke-width="0.09375" opacity="1.00" d=" M 180.4 127.7 C 182.9 126.7 186.0 127.1 187.8 129.2 C 191.2 132.9 191.0 138.4 190.5 143.0 C 189.9 146.8 187.2 151.0 183.0 150.8 C 178.4 150.9 175.9 146.0 175.6 142.0 C 175.1 137.0 175.4 130.4 180.4 127.7 Z" />
<path fill="#fff54e" stroke="#fff54e" stroke-width="0.09375" opacity="1.00" d=" M 63.2 135.3 C 64.6 134.7 65.3 133.3 65.8 131.9 C 65.8 133.5 65.9 135.1 65.9 136.7 C 64.4 139.6 64.2 143.0 65.0 146.1 C 64.6 144.8 64.1 143.4 63.7 142.1 L 63.1 142.1 C 61.9 142.2 60.7 142.2 59.5 142.3 C 59.2 143.5 58.8 144.8 58.5 146.1 C 58.2 144.4 57.9 142.7 57.6 141.1 C 59.2 138.9 60.7 136.6 63.2 135.3 Z" />
<path fill="#201303" stroke="#201303" stroke-width="0.09375" opacity="1.00" d=" M 65.9 136.7 C 68.0 134.2 71.4 131.8 74.9 133.1 C 80.7 135.0 82.3 142.7 79.8 147.7 C 78.2 150.8 74.6 153.3 71.0 152.2 C 68.1 151.4 66.1 148.8 65.0 146.1 C 64.2 143.0 64.4 139.6 65.9 136.7 Z" />
<path fill="#080807" stroke="#080807" stroke-width="0.09375" opacity="1.00" d=" M 84.5 132.0 C 85.2 132.5 86.0 132.9 86.7 133.4 C 90.7 133.2 95.0 134.2 98.7 132.1 C 98.6 133.9 98.5 135.6 98.4 137.3 C 98.0 136.5 97.5 135.7 97.0 134.9 C 95.6 134.7 94.1 134.6 92.7 134.5 C 92.7 139.6 92.6 144.7 92.8 149.8 C 93.6 150.5 94.3 151.1 95.1 151.7 C 92.7 151.8 90.3 151.7 87.9 151.5 C 88.2 151.3 88.9 150.8 89.2 150.6 L 90.2 149.9 C 90.6 144.7 90.3 139.5 90.4 134.4 C 88.5 134.7 86.1 134.4 85.1 136.4 C 84.9 136.6 84.6 136.9 84.4 137.1 C 84.5 135.4 84.5 133.7 84.5 132.0 Z" />
<path fill="#110a0a" stroke="#110a0a" stroke-width="0.09375" opacity="1.00" d=" M 201.5 133.5 C 203.4 132.0 205.7 133.2 207.8 133.4 C 207.7 134.8 207.7 136.3 207.6 137.8 C 206.7 135.1 204.4 133.3 201.6 134.5 C 201.5 136.1 200.8 138.3 202.6 139.3 C 205.0 141.5 209.0 143.1 208.7 146.9 C 209.0 149.4 207.1 151.4 205.0 152.3 C 203.1 152.4 201.2 151.9 199.3 151.7 C 199.4 149.8 199.4 148.0 199.6 146.2 C 200.4 148.5 201.6 150.7 204.0 151.6 C 205.6 150.5 207.5 148.7 206.4 146.5 C 204.8 144.2 201.9 143.0 200.3 140.7 C 198.7 138.5 199.2 135.0 201.5 133.5 Z" />
<path fill="#fef894" stroke="#fef894" stroke-width="0.09375" opacity="1.00" d=" M 37.6 139.7 C 37.8 137.1 38.1 134.5 38.6 131.9 C 39.3 134.1 39.9 136.4 40.7 138.6 C 39.7 138.9 38.6 139.3 37.6 139.7 Z" />
<path fill="#110a0a" stroke="#110a0a" stroke-width="0.09375" opacity="1.00" d=" M 101.9 133.5 C 104.3 133.4 106.7 133.4 109.1 133.4 C 108.2 134.4 106.5 135.3 106.7 136.9 C 106.6 140.6 106.7 144.4 106.7 148.1 C 106.4 149.9 108.2 150.8 109.3 151.8 C 106.8 151.7 104.3 151.7 101.9 151.7 C 102.7 151.1 103.5 150.5 104.3 149.8 C 104.3 144.9 104.5 140.0 104.2 135.1 C 103.4 134.6 102.6 134.0 101.9 133.5 Z" />
<path fill="#120a05" stroke="#120a05" stroke-width="0.09375" opacity="1.00" d=" M 112.9 133.4 C 115.4 133.4 117.9 133.4 120.4 133.4 C 119.5 134.1 118.4 134.8 117.8 135.8 C 117.5 140.6 117.7 145.5 117.7 150.3 C 119.5 150.4 121.3 150.6 123.1 150.3 C 124.5 149.8 124.9 148.1 125.8 147.0 C 125.6 148.6 125.5 150.2 125.4 151.7 C 121.2 151.8 117.0 151.6 112.8 151.9 C 113.7 151.0 114.5 150.2 115.4 149.3 C 115.2 144.8 115.6 140.3 115.2 135.8 C 114.6 134.9 113.7 134.1 112.9 133.4 Z" />
<path fill="#1a120a" stroke="#1a120a" stroke-width="0.09375" opacity="1.00" d=" M 134.8 135.8 C 135.1 134.3 135.9 133.0 137.1 132.1 C 139.5 137.4 140.2 143.4 142.3 148.9 C 142.8 150.1 143.8 150.9 144.6 151.9 C 142.4 151.8 140.3 151.8 138.1 151.8 C 138.6 151.4 139.5 150.5 139.9 150.0 C 139.4 148.1 138.9 146.1 138.4 144.2 C 136.8 144.2 135.2 144.2 133.7 144.2 C 133.1 146.1 132.6 148.1 132.1 150.0 C 132.6 150.5 133.5 151.4 134.0 151.8 C 132.2 151.8 130.3 151.8 128.5 151.8 C 129.5 150.6 131.0 149.6 131.3 148.0 C 132.5 143.9 133.6 139.9 134.8 135.8 Z" />
<path fill="#100704" stroke="#100704" stroke-width="0.09375" opacity="1.00" d=" M 146.8 133.4 C 149.4 133.4 151.9 133.4 154.4 133.5 C 153.5 134.0 152.6 134.5 151.8 135.0 C 151.4 140.1 151.5 145.2 151.6 150.3 C 153.5 150.4 155.3 150.6 157.1 150.3 C 158.3 149.4 159.0 148.2 159.9 147.0 C 159.6 148.6 159.4 150.2 159.2 151.8 C 155.1 151.8 150.9 151.6 146.8 151.9 C 147.6 151.0 148.5 150.2 149.1 149.2 C 149.4 144.8 149.2 140.3 149.2 135.9 C 148.4 135.1 147.6 134.2 146.8 133.4 Z" />
<path fill="#1b0f0a" stroke="#1b0f0a" stroke-width="0.09375" opacity="1.00" d=" M 211.3 133.3 C 213.6 133.3 215.8 133.4 218.1 133.5 C 217.6 133.8 216.7 134.5 216.2 134.9 C 217.3 138.8 218.0 142.9 219.9 146.5 C 221.0 143.4 222.2 140.3 222.8 137.0 C 222.9 135.3 221.1 134.6 220.0 133.6 C 222.3 133.4 224.6 133.3 226.9 133.4 C 226.4 133.7 225.6 134.5 225.1 134.8 C 225.8 138.4 226.8 141.9 228.0 145.4 C 228.3 145.5 228.9 145.8 229.2 146.0 C 230.0 142.5 230.9 139.1 232.5 135.8 C 231.7 135.0 230.9 134.2 230.1 133.4 C 232.0 133.4 234.0 133.4 236.0 133.4 C 234.8 134.5 233.5 135.5 233.1 137.1 C 231.4 142.0 230.1 147.0 228.4 151.9 C 228.1 151.9 227.7 151.9 227.5 151.9 C 225.7 148.1 225.9 143.2 223.0 140.0 C 222.2 144.1 220.8 148.0 219.6 151.9 C 219.4 151.9 218.9 151.8 218.7 151.8 C 216.9 146.9 215.7 141.7 214.0 136.8 C 213.5 135.4 212.3 134.4 211.3 133.3 Z" />
<path fill="#171210" stroke="#171210" stroke-width="0.09375" opacity="1.00" d=" M 235.1 151.9 C 239.8 146.8 239.3 139.3 242.2 133.3 C 242.7 133.1 243.6 132.7 244.1 132.5 C 245.6 138.4 247.3 144.1 249.0 149.9 C 249.7 150.5 250.4 151.1 251.1 151.8 C 248.9 151.8 246.7 151.7 244.5 151.8 C 245.2 151.0 245.8 150.2 246.5 149.4 C 245.9 147.7 245.5 146.0 244.7 144.4 C 243.2 144.2 241.7 144.2 240.1 144.2 C 239.6 146.1 239.1 148.1 238.6 150.0 C 239.1 150.4 240.1 151.3 240.6 151.7 C 238.8 151.7 237.0 151.8 235.1 151.9 Z" />
<path fill="#2f230a" stroke="#2f230a" stroke-width="0.09375" opacity="1.00" d=" M 253.0 133.4 C 255.6 133.3 258.2 133.3 260.8 133.2 C 260.0 134.0 259.1 134.9 258.2 135.7 C 258.4 140.6 258.1 145.5 258.4 150.4 C 260.2 150.3 262.1 150.5 263.8 150.1 C 264.7 149.1 265.5 148.0 266.4 146.9 C 266.2 148.6 266.5 150.7 265.1 151.9 C 261.1 152.0 257.1 151.6 253.1 152.0 C 253.9 151.2 254.7 150.3 255.5 149.5 C 255.6 144.8 255.6 140.1 255.4 135.5 C 254.6 134.8 253.8 134.1 253.0 133.4 Z" />
<path fill="#fef56b" stroke="#fef56b" stroke-width="0.09375" opacity="1.00" d=" M 43.6 137.1 C 44.4 136.1 45.1 135.0 46.0 134.1 C 47.4 134.6 48.8 135.4 50.2 136.1 C 49.0 139.4 47.8 142.7 46.8 146.0 C 45.7 143.0 44.6 140.1 43.6 137.1 Z" />
<path fill="#feaf16" stroke="#feaf16" stroke-width="0.09375" opacity="1.00" d=" M 70.3 135.0 C 72.3 133.5 75.4 134.3 76.7 136.5 C 78.7 139.7 78.8 144.0 77.3 147.5 C 76.6 149.3 75.0 150.9 73.0 150.9 C 69.8 151.1 67.7 147.8 67.5 145.0 C 67.2 141.6 67.2 137.2 70.3 135.0 Z" />
<path fill="#f1b232" stroke="#f1b232" stroke-width="0.09375" opacity="1.00" d=" M 85.1 136.4 C 86.1 134.4 88.5 134.7 90.4 134.4 C 90.3 139.5 90.6 144.7 90.2 149.9 L 89.2 150.6 C 88.9 145.8 89.0 140.9 89.0 136.0 C 87.7 136.2 86.4 136.3 85.1 136.4 Z" />
<path fill="#feb017" stroke="#feb017" stroke-width="0.09375" opacity="1.00" d=" M 136.0 135.8 C 136.7 138.1 137.3 140.3 137.9 142.6 C 136.6 142.6 135.4 142.6 134.1 142.6 C 134.7 140.4 135.4 138.1 136.0 135.8 Z" />
<path fill="#feb017" stroke="#feb017" stroke-width="0.09375" opacity="1.00" d=" M 242.1 136.8 C 243.5 138.4 243.9 140.6 244.6 142.6 C 243.2 142.6 241.8 142.6 240.5 142.5 C 241.1 140.6 241.6 138.7 242.1 136.8 Z" />
<path fill="#fff54e" stroke="#fff54e" stroke-width="0.09375" opacity="1.00" d=" M 37.6 139.7 C 38.6 139.3 39.7 138.9 40.7 138.6 C 41.6 141.0 42.4 143.4 43.2 145.9 C 42.1 144.8 40.9 143.7 39.8 142.5 C 39.0 143.0 38.1 143.5 37.3 144.0 C 37.4 142.6 37.5 141.2 37.6 139.7 Z" />
<path fill="#fef334" stroke="#fef334" stroke-width="0.09375" opacity="1.00" d=" M 49.1 143.7 C 51.4 142.8 53.4 141.3 53.8 138.7 C 54.1 142.2 54.4 145.7 54.4 149.2 C 53.9 149.6 52.9 150.4 52.4 150.8 C 52.5 149.2 52.6 147.5 52.7 145.9 C 50.8 146.7 49.0 147.6 47.3 148.6 C 47.9 147.0 48.5 145.3 49.1 143.7 Z" />
<path fill="#fef334" stroke="#fef334" stroke-width="0.09375" opacity="1.00" d=" M 57.4 140.6 L 57.4 139.5 L 57.6 141.1 C 57.9 142.7 58.2 144.4 58.5 146.1 C 58.8 144.8 59.2 143.5 59.5 142.3 C 60.7 142.2 61.9 142.2 63.1 142.1 C 61.6 144.7 60.3 147.4 59.1 150.1 C 56.5 147.7 57.8 143.7 57.4 140.6 Z" />
<path fill="#fff106" stroke="#fff106" stroke-width="0.09375" opacity="1.00" d=" M 37.3 144.0 C 38.1 143.5 39.0 143.0 39.8 142.5 C 40.9 143.7 42.1 144.8 43.2 145.9 C 43.9 147.7 44.5 149.6 45.1 151.4 C 43.8 151.3 42.5 151.2 41.2 151.2 C 40.0 150.9 38.8 150.4 37.6 150.0 C 37.4 148.0 37.3 146.0 37.3 144.0 Z" />
<path fill="#fff106" stroke="#fff106" stroke-width="0.09375" opacity="1.00" d=" M 47.3 148.6 C 49.0 147.6 50.8 146.7 52.7 145.9 C 52.6 147.5 52.5 149.2 52.4 150.8 C 50.5 151.5 48.4 151.9 46.3 151.6 C 46.6 150.6 47.0 149.6 47.3 148.6 Z" />
<path fill="#fed104" stroke="#fed104" stroke-width="0.09375" opacity="1.00" d=" M 41.2 151.2 C 42.5 151.2 43.8 151.3 45.1 151.4 C 45.4 151.5 46.0 151.5 46.3 151.6 C 48.4 151.9 50.5 151.5 52.4 150.8 L 51.3 151.6 C 53.0 151.7 54.7 151.7 56.4 151.7 C 55.0 154.5 52.3 156.9 49.1 156.8 C 44.1 157.0 39.1 156.4 34.1 156.7 C 35.4 156.2 36.7 155.8 37.9 155.4 C 37.0 154.8 36.1 154.3 35.2 153.7 C 35.3 153.2 35.7 152.2 35.9 151.8 C 37.7 151.7 39.4 151.5 41.2 151.2 Z" />
<path fill="#110a0a" stroke="#110a0a" stroke-width="0.09375" opacity="1.00" d=" M 32.6 158.4 L 32.9 157.8 C 110.6 157.5 188.3 157.7 265.9 157.7 L 265.9 159.4 C 204.6 159.4 143.3 159.4 82.0 159.4 C 65.4 159.3 48.8 159.6 32.1 159.3 L 32.6 158.4 Z" />
<path fill="#ed1b24" stroke="#ed1b24" stroke-width="0.09375" opacity="1.00" d=" M 150.6 165.5 C 152.4 165.1 154.1 164.7 155.9 164.7 C 192.7 165.0 229.4 164.6 266.1 165.0 C 264.3 168.7 262.3 172.2 260.3 175.8 C 223.7 172.5 187.2 168.6 150.6 165.5 Z" />
</svg>
