<svg width="35" height="16" viewBox="0 0 35 16" fill="none" xmlns="http://www.w3.org/2000/svg">
<rect x="0.38587" y="0.38587" width="34.2283" height="15.2065" rx="1.875" stroke="black" stroke-width="0.75"/>
<path d="M16.087 12.1739H18.913V3.80435H16.087V12.1739ZM20.3261 12.1739H22.4457V9.38406H25.9783C26.3786 9.38406 26.7142 9.25038 26.9851 8.98302C27.2559 8.71565 27.3913 8.38436 27.3913 7.98913V5.19927C27.3913 4.80405 27.2559 4.47275 26.9851 4.20539C26.7142 3.93803 26.3786 3.80435 25.9783 3.80435H20.3261V12.1739ZM7.6087 12.1739H13.2609C13.6612 12.1739 13.9968 12.0402 14.2677 11.7729C14.5385 11.5055 14.6739 11.1742 14.6739 10.779V8.33786C14.6739 7.94263 14.5385 7.61134 14.2677 7.34398C13.9968 7.07662 13.6612 6.94293 13.2609 6.94293H9.72826V5.89674H14.6739V3.80435H9.02174C8.62138 3.80435 8.28578 3.93803 8.01495 4.20539C7.74411 4.47275 7.6087 4.80405 7.6087 5.19927V7.6404C7.6087 8.03563 7.74411 8.36692 8.01495 8.63428C8.28578 8.90165 8.62138 9.03533 9.02174 9.03533H12.5543V10.0815H7.6087V12.1739ZM22.4457 7.29167V5.89674H25.2717V7.29167H22.4457Z" fill="black"/>
</svg>
